HIERARCHY
ROOT hip
{
  OFFSET 0 0 0
  CHANNELS 6 Xposition Yposition Zposition Zrotation Yrotation Xrotation
  JOINT abdomen
  {
    OFFSET 0 20.6881 -0.73152
    CHANNELS 3 Zrotation Xrotation Yrotation
    JOINT chest
    {
      OFFSET 0 11.7043 -0.48768
      CHANNELS 3 Zrotation Xrotation Yrotation
      JOINT neck
      {
        OFFSET 0 22.1894 -2.19456
        CHANNELS 3 Zrotation Xrotation Yrotation
        JOINT head
        {
          OFFSET -0.24384 7.07133 1.2192
          CHANNELS 3 Zrotation Xrotation Yrotation
          JOINT leftEye
          {
            OFFSET 4.14528 8.04674 8.04672
            CHANNELS 3 Zrotation Xrotation Yrotation
            End Site
            {
              OFFSET 1 0 0
            }
          }
          JOINT rightEye
          {
            OFFSET -3.6576 8.04674 8.04672
            CHANNELS 3 Zrotation Xrotation Yrotation
            End Site
            {
              OFFSET 1 0 0
            }
          }
        }
      }
      JOINT rCollar
      {
        OFFSET -2.68224 19.2634 -4.8768
        CHANNELS 3 Zrotation Xrotation Yrotation
        JOINT rShldr
        {
          OFFSET -8.77824 -1.95073 1.46304
          CHANNELS 3 Zrotation Xrotation Yrotation
          JOINT rForeArm
          {
            OFFSET -28.1742 -1.7115 0.48768
            CHANNELS 3 Zrotation Xrotation Yrotation
            JOINT rHand
            {
              OFFSET -22.5879 0.773209 7.07136
              CHANNELS 3 Zrotation Xrotation Yrotation
              JOINT rThumb1
              {
                OFFSET -1.2192 -0.487915 3.41376
                CHANNELS 3 Zrotation Xrotation Yrotation
                JOINT rThumb2
                {
                  OFFSET -3.37035 -0.52449 3.41376
                  CHANNELS 3 Zrotation Xrotation Yrotation
                  End Site
                  {
                    OFFSET -1.78271 -1.18214 1.43049
                  }
                }
              }
              JOINT rIndex1
              {
                OFFSET -7.75947 0.938293 5.60832
                CHANNELS 3 Zrotation Xrotation Yrotation
                JOINT rIndex2
                {
                  OFFSET -2.54057 -0.884171 1.56538
                  CHANNELS 3 Zrotation Xrotation Yrotation
                  End Site
                  {
                    OFFSET -1.62519 -0.234802 1.16502
                  }
                }
              }
              JOINT rMid1
              {
                OFFSET -8.24714 1.18213 3.41376
                CHANNELS 3 Zrotation Xrotation Yrotation
                JOINT rMid2
                {
                  OFFSET -3.10165 -0.590103 1.0647
                  CHANNELS 3 Zrotation Xrotation Yrotation
                  End Site
                  {
                    OFFSET -2.48547 -0.328903 0.83742
                  }
                }
              }
              JOINT rRing1
              {
                OFFSET -8.82822 0.546677 1.51678
                CHANNELS 3 Zrotation Xrotation Yrotation
                JOINT rRing2
                {
                  OFFSET -2.60934 -0.819778 -0.0198488
                  CHANNELS 3 Zrotation Xrotation Yrotation
                  End Site
                  {
                    OFFSET -2.33842 -0.294052 0.168128
                  }
                }
              }
              JOINT rPinky1
              {
                OFFSET -8.27202 -0.0477905 -0.4584
                CHANNELS 3 Zrotation Xrotation Yrotation
                JOINT rPinky2
                {
                  OFFSET -1.82734 -0.647385 -0.700984
                  CHANNELS 3 Zrotation Xrotation Yrotation
                  End Site
                  {
                    OFFSET -1.69225 -0.51767 -0.607171
                  }
                }
              }
            }
          }
        }
      }
      JOINT lCollar
      {
        OFFSET 2.68224 19.2634 -4.8768
        CHANNELS 3 Zrotation Xrotation Yrotation
        JOINT lShldr
        {
          OFFSET 8.77824 -1.95073 1.46304
          CHANNELS 3 Zrotation Xrotation Yrotation
          JOINT lForeArm
          {
            OFFSET 28.1742 -1.7115 0.48768
            CHANNELS 3 Zrotation Xrotation Yrotation
            JOINT lHand
            {
              OFFSET 22.5879 0.773209 7.07136
              CHANNELS 3 Zrotation Xrotation Yrotation
              JOINT lThumb1
              {
                OFFSET 1.2192 -0.487915 3.41376
                CHANNELS 3 Zrotation Xrotation Yrotation
                JOINT lThumb2
                {
                  OFFSET 3.37035 -0.52449 3.41376
                  CHANNELS 3 Zrotation Xrotation Yrotation
                  End Site
                  {
                    OFFSET 1.78271 -1.18214 1.43049
                  }
                }
              }
              JOINT lIndex1
              {
                OFFSET 7.75947 0.938293 5.60832
                CHANNELS 3 Zrotation Xrotation Yrotation
                JOINT lIndex2
                {
                  OFFSET 2.54057 -0.884171 1.56538
                  CHANNELS 3 Zrotation Xrotation Yrotation
                  End Site
                  {
                    OFFSET 1.62519 -0.234802 1.16502
                  }
                }
              }
              JOINT lMid1
              {
                OFFSET 8.24714 1.18213 3.41376
                CHANNELS 3 Zrotation Xrotation Yrotation
                JOINT lMid2
                {
                  OFFSET 3.10165 -0.590103 1.0647
                  CHANNELS 3 Zrotation Xrotation Yrotation
                  End Site
                  {
                    OFFSET 2.48547 -0.328903 0.83742
                  }
                }
              }
              JOINT lRing1
              {
                OFFSET 8.82822 0.546677 1.51678
                CHANNELS 3 Zrotation Xrotation Yrotation
                JOINT lRing2
                {
                  OFFSET 2.60934 -0.819778 -0.0198488
                  CHANNELS 3 Zrotation Xrotation Yrotation
                  End Site
                  {
                    OFFSET 2.33842 -0.294052 0.168128
                  }
                }
              }
              JOINT lPinky1
              {
                OFFSET 8.27202 -0.0477905 -0.4584
                CHANNELS 3 Zrotation Xrotation Yrotation
                JOINT lPinky2
                {
                  OFFSET 1.82734 -0.647385 -0.700984
                  CHANNELS 3 Zrotation Xrotation Yrotation
                  End Site
                  {
                    OFFSET 1.69225 -0.51767 -0.607171
                  }
                }
              }
            }
          }
        }
      }
    }
  }
  JOINT rButtock
  {
    OFFSET -8.77824 4.35084 1.2192
    CHANNELS 3 Zrotation Xrotation Yrotation
    JOINT rThigh
    {
      OFFSET 0 -1.70687 -2.19456
      CHANNELS 3 Zrotation Xrotation Yrotation
      JOINT rShin
      {
        OFFSET 0 -36.8199 0.73152
        CHANNELS 3 Zrotation Xrotation Yrotation
        JOINT rFoot
        {
          OFFSET 0.73152 -45.1104 -5.12064
          CHANNELS 3 Zrotation Xrotation Yrotation
          End Site
          {
            OFFSET -1.1221 -3.69964 12.103
          }
        }
      }
    }
  }
  JOINT lButtock
  {
    OFFSET 8.77824 4.35084 1.2192
    CHANNELS 3 Zrotation Xrotation Yrotation
    JOINT lThigh
    {
      OFFSET 0 -1.70687 -2.19456
      CHANNELS 3 Zrotation Xrotation Yrotation
      JOINT lShin
      {
        OFFSET 0 -36.8199 0.73152
        CHANNELS 3 Zrotation Xrotation Yrotation
        JOINT lFoot
        {
          OFFSET -0.73152 -45.1104 -5.12064
          CHANNELS 3 Zrotation Xrotation Yrotation
          End Site
          {
            OFFSET 1.1221 -3.69964 12.103
          }
        }
      }
    }
  }
}
MOTION
Frames:	8
Frame Time:	0.00833333
66.2354 68.618 41.263 0.0 0.0 0.0 0.040482 0.000270399 0.00114433 0.011157 0.000489931 0.00193267 -4.7122e-16 7.95139e-16 -1.553e-18 -1.42255e-15 9.54166e-15 -7.76503e-18 -0.0 0.0 0.0 -0.0 0.0 0.0 -2.00122e-16 -7.76503e-19 9.93923e-17 -3.20414e-15 -3.60297e-16 9.93923e-16 -8.40859e-14 2.40529e-14 3.18055e-15 -9.78785e-13 -3.29983e-14 -1.27222e-14 -2.30613e-12 -1.52961e-14 -9.54166e-15 -3.99319e-12 -2.8625e-14 -1.98785e-14 -2.30034e-12 -1.31198e-14 -1.90833e-14 7.73091 5.47488 0.417314 -2.30526e-12 -1.59028e-14 0.0 2.90554 0.965183 0.102902 -2.2988e-12 -1.5207e-14 -1.19271e-14 10.2786 0.731801 0.0259123 -2.31385e-12 -1.27222e-14 -6.36111e-15 2.22167 -0.733487 -0.20892 -2.96855e-16 -1.16475e-18 -9.93923e-17 -6.73975e-15 -4.5969e-16 -9.93923e-16 -8.62229e-14 -2.8625e-14 -6.36111e-15 -9.77909e-13 1.28465e-14 6.36111e-15 -2.30552e-12 -2.92305e-14 -1.59028e-14 -3.97927e-12 -5.08889e-14 -1.35174e-14 -2.30988e-12 -2.94201e-14 -3.18055e-15 -7.73091 5.47488 -0.417314 -2.30461e-12 -2.97183e-14 -1.59028e-14 -2.90554 0.965183 -0.102902 -2.3102e-12 -2.94201e-14 -8.74653e-15 -10.2786 0.731801 -0.0259123 -2.29835e-12 -2.8625e-14 -1.59028e-14 -2.22167 -0.733487 0.20892 -2.03217e-16 0.0 -3.88251e-19 0.554645 -3.16496 -0.0436852 -0.00574523 0.179606 -0.0505579 -0.523883 2.98421 0.121169 2.03217e-16 0.0 3.88251e-19 -0.493031 -3.01454 0.0399653 0.00619327 -0.0928784 0.0545625 0.523453 3.10627 -0.123625
62.9491 66.4424 37.6413 110.729 -86.5145 -112.256 -1.07584 3.73914 -0.544348 0.389481 -0.585682 -0.200924 0.852908 0.86701 0.841827 -0.90122 -5.41967 1.32838 -0.0 0.0 0.0 -0.0 0.0 0.0 -2.04597e-14 6.33591e-13 -5.54733e-15 17.4781 -4.97059 -1.1 -10.2592 -7.12198 12.4758 0.0317693 -3.98827 -0.555777 4.09371e-10 5.55377e-10 -1.58348e-10 7.09079e-10 9.43793e-10 -2.69443e-10 4.09376e-10 5.55379e-10 -1.58356e-10 7.73091 5.47488 0.417314 4.09372e-10 5.55374e-10 -1.5834e-10 2.90554 0.965183 0.102902 4.09378e-10 5.55377e-10 -1.58349e-10 10.2786 0.731801 0.0259123 4.09364e-10 5.55378e-10 -1.58342e-10 2.22167 -0.733487 -0.20892 -2.05014e-14 6.3359e-13 -5.77097e-15 -12.8085 -3.84001 0.113456 6.02849 -3.23059 -8.82198 -0.0107975 -2.37939 0.333496 -5.87371e-10 7.2161e-10 -3.79242e-11 -1.01617e-09 1.23869e-09 -6.86356e-11 -5.87376e-10 7.21617e-10 -3.79104e-11 -7.73091 5.47488 -0.417314 -5.8737e-10 7.21608e-10 -3.79242e-11 -2.90554 0.965183 -0.102902 -5.87376e-10 7.21609e-10 -3.79208e-11 -10.2786 0.731801 -0.0259123 -5.87363e-10 7.21611e-10 -3.79277e-11 -2.22167 -0.733487 0.20892 -2.03217e-16 0.0 -3.88251e-19 0.0922675 -11.4947 0.844041 0.139274 19.6478 0.245804 -1.13312 -4.9226 -3.75205 2.03217e-16 0.0 3.88251e-19 0.176609 -11.0077 2.82401 -0.0060073 18.8847 -0.201603 0.257323 -5.23999 -1.06637
62.837 66.7935 37.7192 106.648 -86.2705 -108.273 -2.171 7.71218 -1.1378 0.780744 -1.19929 -0.418502 1.73091 1.78316 1.73707 -1.57089 -11.1482 2.78171 -0.0 0.0 0.0 -0.0 0.0 0.0 -4.26224e-14 1.32109e-12 -1.16538e-14 35.838 -10.1203 -2.24936 -17.7269 -13.4654 26.2068 -0.0196604 -8.14374 -1.1441 8.51812e-10 1.08338e-09 -3.20667e-10 1.47531e-09 1.8394e-09 -5.45495e-10 8.51816e-10 1.08339e-09 -3.20675e-10 7.73091 5.47488 0.417314 8.51813e-10 1.08338e-09 -3.20661e-10 2.90554 0.965183 0.102902 8.51819e-10 1.08338e-09 -3.20667e-10 10.2786 0.731801 0.0259123 8.51806e-10 1.08338e-09 -3.20658e-10 2.22167 -0.733487 -0.20892 -4.26031e-14 1.32109e-12 -1.19022e-14 -26.4362 -7.85516 0.231042 11.3127 -6.37231 -18.2099 0.0083022 -4.82623 0.678472 -1.21868e-09 1.46105e-09 -8.52158e-11 -2.1083e-09 2.50747e-09 -1.53682e-10 -1.21868e-09 1.46106e-09 -8.52007e-11 -7.73091 5.47488 -0.417314 -1.21867e-09 1.46104e-09 -8.52156e-11 -2.90554 0.965183 -0.102902 -1.21868e-09 1.46104e-09 -8.52164e-11 -10.2786 0.731801 -0.0259123 -1.21867e-09 1.46105e-09 -8.5223e-11 -2.22167 -0.733487 0.20892 -2.03217e-16 0.0 -3.88251e-19 -0.0793021 -20.3219 1.85595 0.0160575 40.3044 0.69586 -2.99549 -13.2175 -8.11313 2.03217e-16 0.0 3.88251e-19 1.79201 -19.4203 6.00972 0.211963 39.0337 -0.5807 -0.328963 -14.1272 -2.1028
62.7368 67.2665 37.7356 102.074 -86.4583 -103.739 -3.09139 11.2128 -1.66362 1.13367 -1.75794 -0.606892 2.48225 2.59878 2.52779 -1.92383 -16.2233 4.13213 -0.0 0.0 0.0 -0.0 0.0 0.0 -6.09789e-14 1.90077e-12 -1.68408e-14 51.845 -14.8894 -3.40193 -21.8658 -17.2811 39.2142 -0.141162 -11.9603 -1.70021 1.23272e-09 1.66616e-09 -4.75024e-10 2.13522e-09 2.83144e-09 -8.0829e-10 1.23273e-09 1.66616e-09 -4.75031e-10 7.73091 5.47488 0.417314 1.23273e-09 1.66615e-09 -4.75019e-10 2.90554 0.965183 0.102902 1.23273e-09 1.66616e-09 -4.75023e-10 10.2786 0.731801 0.0259123 1.23272e-09 1.66616e-09 -4.75013e-10 2.22167 -0.733487 -0.20892 -6.09104e-14 1.90077e-12 -1.71141e-14 -38.3791 -11.5198 0.346584 15.1899 -8.77436 -26.7612 0.0512524 -7.1372 1.00743 -1.7575e-09 2.16489e-09 -1.13741e-10 -3.04056e-09 3.71617e-09 -2.0588e-10 -1.75751e-09 2.16491e-09 -1.13725e-10 -7.73091 5.47488 -0.417314 -1.7575e-09 2.16488e-09 -1.13741e-10 -2.90554 0.965183 -0.102902 -1.75751e-09 2.16488e-09 -1.13745e-10 -10.2786 0.731801 -0.0259123 -1.75749e-09 2.16489e-09 -1.13751e-10 -2.22167 -0.733487 0.20892 -2.03217e-16 0.0 -3.88251e-19 0.0321582 -28.127 2.9128 -0.62477 58.5758 1.5261 -5.70449 -20.3355 -12.2295 2.03217e-16 0.0 3.88251e-19 4.08185 -26.732 9.22999 0.816722 56.8339 -1.24558 -1.15216 -21.9049 -3.16777
62.7068 67.7628 37.8155 98.6069 -86.4677 -100.071 -3.73717 13.5365 -1.99163 1.39966 -2.17925 -0.722072 2.97165 3.1653 3.05496 -2.05535 -19.6998 5.08217 -0.0 0.0 0.0 -0.0 0.0 0.0 -6.98197e-14 2.2109e-12 -1.97294e-14 62.3308 -18.7229 -4.48547 -23.7231 -18.5888 48.7453 -0.281561 -14.9333 -2.14809 1.45982e-09 2.38586e-09 -6.09474e-10 2.52935e-09 4.06453e-09 -1.03794e-09 1.45982e-09 2.38586e-09 -6.0948e-10 7.73091 5.47488 0.417314 1.45982e-09 2.38585e-09 -6.09471e-10 2.90554 0.965183 0.102902 1.45982e-09 2.38586e-09 -6.09472e-10 10.2786 0.731801 0.0259123 1.45981e-09 2.38586e-09 -6.09461e-10 2.22167 -0.733487 -0.20892 -6.97317e-14 2.21089e-12 -2.00276e-14 -46.1391 -14.3085 0.451992 17.5178 -10.1774 -32.9472 0.102864 -9.1092 1.29122 -2.06513e-09 2.77974e-09 -9.53498e-11 -3.57317e-09 4.77464e-09 -1.75956e-10 -2.06514e-09 2.77977e-09 -9.53339e-11 -7.73091 5.47488 -0.417314 -2.06513e-09 2.77974e-09 -9.53498e-11 -2.90554 0.965183 -0.102902 -2.06514e-09 2.77974e-09 -9.53562e-11 -10.2786 0.731801 -0.0259123 -2.06513e-09 2.77975e-09 -9.53626e-11 -2.22167 -0.733487 0.20892 -2.03217e-16 0.0 -3.88251e-19 0.217989 -33.4014 3.8148 -2.00814 70.889 2.97884 -7.96327 -24.9474 -14.9412 2.03217e-16 0.0 3.88251e-19 6.13278 -31.5405 11.7482 1.88134 68.766 -2.31062 -1.93673 -26.9339 -4.08875
62.6961 68.3283 37.9383 97.873 -86.0249 -99.067 -4.10295 14.2234 -1.99611 1.56803 -2.41918 -0.727273 3.10833 3.37952 3.20083 -2.1566 -20.9681 5.34606 -0.0 0.0 0.0 -0.0 0.0 0.0 -6.70038e-14 2.29765e-12 -2.08316e-14 65.2061 -21.2856 -5.42943 -24.407 -18.944 52.956 -0.378895 -16.7856 -2.43336 1.46013e-09 3.14589e-09 -6.94767e-10 2.53133e-09 5.37019e-09 -1.18446e-09 1.46013e-09 3.14589e-09 -6.94773e-10 7.73091 5.47488 0.417314 1.46013e-09 3.14588e-09 -6.94765e-10 2.90554 0.965183 0.102902 1.46013e-09 3.14589e-09 -6.94766e-10 10.2786 0.731801 0.0259123 1.46012e-09 3.14589e-09 -6.94755e-10 2.22167 -0.733487 -0.20892 -6.69434e-14 2.29765e-12 -2.11628e-14 -48.0442 -15.8913 0.520085 18.4557 -10.7581 -35.6748 0.146284 -10.6064 1.50871 -2.05238e-09 3.3656e-09 -4.00727e-12 -3.55188e-09 5.78706e-09 -1.87076e-11 -2.05238e-09 3.36563e-09 -3.99309e-12 -7.73091 5.47488 -0.417314 -2.05237e-09 3.36561e-09 -4.00799e-12 -2.90554 0.965183 -0.102902 -2.05238e-09 3.3656e-09 -4.01412e-12 -10.2786 0.731801 -0.0259123 -2.05237e-09 3.36561e-09 -4.02105e-12 -2.22167 -0.733487 0.20892 -2.03217e-16 0.0 -3.88251e-19 0.161951 -35.1778 4.32274 -3.02402 74.9164 3.98133 -8.3813 -26.4714 -15.1216 2.03217e-16 0.0 3.88251e-19 6.78792 -33.0497 12.6962 2.53496 72.5175 -2.95435 -2.30173 -28.2217 -4.57772
62.7043 69.029 38.0303 96.9868 -85.718 -97.865 -4.27802 13.7411 -1.7669 1.66679 -2.52906 -0.65421 2.99869 3.34271 3.07444 -2.29654 -20.6655 5.09217 -0.0 0.0 0.0 -0.0 0.0 0.0 -5.57825e-14 2.21751e-12 -2.05897e-14 62.6853 -22.941 -6.25779 -24.5823 -19.3848 53.3851 -0.42566 -17.8356 -2.59524 1.29899e-09 3.94193e-09 -7.45963e-10 2.25416e-09 6.74031e-09 -1.27335e-09 1.299e-09 3.94192e-09 -7.45969e-10 7.73091 5.47488 0.417314 1.29899e-09 3.94191e-09 -7.45962e-10 2.90554 0.965183 0.102902 1.299e-09 3.94192e-09 -7.45962e-10 10.2786 0.731801 0.0259123 1.29899e-09 3.94193e-09 -7.45951e-10 2.22167 -0.733487 -0.20892 -5.57829e-14 2.21751e-12 -2.09594e-14 -45.7724 -16.612 0.560947 18.5768 -10.9332 -35.9013 0.17924 -11.7647 1.67809 -1.81061e-09 3.92621e-09 1.39097e-10 -3.1347e-09 6.75878e-09 2.28899e-10 -1.81061e-09 3.92622e-09 1.39109e-10 -7.73091 5.47488 -0.417314 -1.81061e-09 3.92622e-09 1.39096e-10 -2.90554 0.965183 -0.102902 -1.81062e-09 3.92621e-09 1.39091e-10 -10.2786 0.731801 -0.0259123 -1.8106e-09 3.92621e-09 1.39083e-10 -2.22167 -0.733487 0.20892 -2.03217e-16 0.0 -3.88251e-19 -0.175354 -34.4615 4.47435 -2.56381 73.0368 3.46614 -7.26908 -25.8311 -13.3604 2.03217e-16 0.0 3.88251e-19 6.19705 -32.2564 12.3583 2.16025 70.4317 -2.57696 -2.26833 -26.8409 -4.70348
62.6854 69.9135 38.0766 94.0666 -85.7443 -94.7091 -4.31773 12.778 -1.48921 1.70568 -2.56958 -0.561536 2.8062 3.21354 2.85643 -2.43121 -19.7257 4.66831 -0.0 0.0 0.0 -0.0 0.0 0.0 -3.85345e-14 1.82421e-12 -1.75198e-14 58.0687 -24.1849 -7.02673 -24.596 -19.9475 52.2816 -0.444349 -18.4729 -2.69223 1.09158e-09 4.99456e-09 -8.17578e-10 1.89739e-09 8.56007e-09 -1.39797e-09 1.09158e-09 4.99455e-09 -8.17584e-10 7.73091 5.47488 0.417314 1.09158e-09 4.99454e-09 -8.17578e-10 2.90554 0.965183 0.102902 1.09158e-09 4.99456e-09 -8.17578e-10 10.2786 0.731801 0.0259123 1.09158e-09 4.99456e-09 -8.17568e-10 2.22167 -0.733487 -0.20892 -3.86004e-14 1.82421e-12 -1.7917e-14 -41.8497 -16.9548 0.622055 18.3968 -10.9748 -35.1365 0.20759 -12.7883 1.82849 -1.47199e-09 4.32376e-09 2.91277e-10 -2.55013e-09 7.45137e-09 4.92881e-10 -1.47199e-09 4.32377e-09 2.91285e-10 -7.73091 5.47488 -0.417314 -1.47199e-09 4.32379e-09 2.91274e-10 -2.90554 0.965183 -0.102902 -1.472e-09 4.32376e-09 2.91272e-10 -10.2786 0.731801 -0.0259123 -1.47199e-09 4.32376e-09 2.91263e-10 -2.22167 -0.733487 0.20892 -2.03217e-16 0.0 -3.88251e-19 -0.653252 -32.7088 4.41982 -1.79149 68.7269 2.62069 -5.62766 -24.1 -10.8357 2.03217e-16 0.0 3.88251e-19 5.19344 -30.5121 11.5236 1.57017 65.9694 -1.98483 -2.0985 -24.255 -4.76451
